<svg width="9" height="5" viewBox="0 0 9 5" fill="none" xmlns="http://www.w3.org/2000/svg">
<path d="M3.91611 4.7721L0.193542 1.10814C-0.245778 0.677051 0.111266 2.4576e-07 0.778007 2.4576e-07H8.22315C8.37237 -0.000109918 8.51846 0.0368186 8.64393 0.106364C8.7694 0.175909 8.86893 0.275122 8.9306 0.392123C8.99228 0.509124 9.01347 0.638953 8.99166 0.766061C8.96985 0.89317 8.90595 1.01217 8.80762 1.10881L5.08504 4.77143C5.01219 4.84322 4.92235 4.90076 4.82154 4.94018C4.72073 4.9796 4.6113 5 4.50058 5C4.38986 5 4.28043 4.9796 4.17962 4.94018C4.07881 4.90076 3.98897 4.84322 3.91611 4.77143V4.7721Z" fill="#616060"/>
</svg>
