<svg width="19" height="19" viewBox="0 0 19 19" fill="none" xmlns="http://www.w3.org/2000/svg">
<path d="M6.65353 13.397C6.50421 13.3972 6.35656 13.3656 6.22043 13.3042C6.08429 13.2429 5.9628 13.1532 5.86405 13.0412C5.7653 12.9292 5.69156 12.7974 5.64775 12.6547C5.60394 12.5119 5.59106 12.3615 5.60997 12.2133L6.00218 9.15971C6.03136 8.93001 6.13463 8.71609 6.29634 8.55038L13.9024 0.951292C14.1701 0.659367 14.4941 0.424649 14.8549 0.261277C15.2157 0.097906 15.6059 0.00926274 16.0018 0.000687876C16.3978 -0.00788699 16.7914 0.063784 17.159 0.211383C17.5265 0.358982 17.8604 0.579455 18.1404 0.859518C18.4205 1.13958 18.641 1.47344 18.7886 1.84098C18.9362 2.20852 19.0078 2.60214 18.9993 2.99811C18.9907 3.39409 18.902 3.78423 18.7387 4.14504C18.5753 4.50584 18.3406 4.82984 18.0487 5.09752L10.4496 12.7036C10.2839 12.8653 10.0699 12.9686 9.84025 12.9978L6.7866 13.39L6.65353 13.397ZM8.05429 9.78304L7.87919 11.1348L9.21691 10.9457L16.5639 3.61272C16.6418 3.53584 16.7037 3.44424 16.7459 3.34325C16.7881 3.24225 16.8099 3.13388 16.8099 3.02441C16.8099 2.91494 16.7881 2.80656 16.7459 2.70556C16.7037 2.60457 16.6418 2.51297 16.5639 2.43609C16.4059 2.28374 16.195 2.19861 15.9755 2.19861C15.7561 2.19861 15.5452 2.28374 15.3872 2.43609L8.05429 9.78304Z" fill="#EF873B"/>
<path d="M15.6814 7.03056C15.406 7.03518 15.1397 6.93216 14.939 6.74341L12.2566 4.06096C12.1534 3.96478 12.0706 3.8488 12.0132 3.71993C11.9557 3.59106 11.9249 3.45195 11.9224 3.31089C11.9199 3.16983 11.9458 3.02972 11.9987 2.8989C12.0515 2.76809 12.1302 2.64926 12.2299 2.5495C12.3297 2.44974 12.4485 2.37109 12.5793 2.31825C12.7101 2.26542 12.8503 2.23947 12.9913 2.24196C13.1324 2.24445 13.2715 2.27532 13.4004 2.33274C13.5292 2.39016 13.6452 2.47295 13.7414 2.57616L16.4589 5.2376C16.6056 5.38452 16.7055 5.57163 16.746 5.77529C16.7864 5.97896 16.7656 6.19005 16.6862 6.3819C16.6067 6.57376 16.4722 6.73776 16.2996 6.85321C16.127 6.96866 15.9241 7.03038 15.7165 7.03056H15.6814ZM16.4589 19H1.05057C0.771938 19 0.504723 18.8893 0.307703 18.6923C0.110684 18.4953 0 18.2281 0 17.9494V2.54115C0 2.26252 0.110684 1.9953 0.307703 1.79828C0.504723 1.60126 0.771938 1.49058 1.05057 1.49058H8.75471C9.03334 1.49058 9.30055 1.60126 9.49757 1.79828C9.69459 1.9953 9.80527 2.26252 9.80527 2.54115C9.80527 2.81977 9.69459 3.08699 9.49757 3.28401C9.30055 3.48103 9.03334 3.59171 8.75471 3.59171H2.10113V16.8989H15.4083V10.2453C15.4083 9.96666 15.519 9.69945 15.716 9.50243C15.913 9.30541 16.1802 9.19472 16.4589 9.19472C16.7375 9.19472 17.0047 9.30541 17.2017 9.50243C17.3987 9.69945 17.5094 9.96666 17.5094 10.2453V17.9494C17.5094 18.2281 17.3987 18.4953 17.2017 18.6923C17.0047 18.8893 16.7375 19 16.4589 19Z" fill="#EF873B"/>
</svg>
