<svg width="11" height="11" viewBox="0 0 11 11" fill="none" xmlns="http://www.w3.org/2000/svg">
<g clip-path="url(#clip0_355_144)">
<path d="M2.74658 3.09169C2.74658 2.36234 3.03631 1.66287 3.55204 1.14714C4.06776 0.631418 4.76724 0.341686 5.49658 0.341686C5.85772 0.341686 6.21532 0.412817 6.54896 0.551018C6.88261 0.689218 7.18576 0.891782 7.44113 1.14714C7.69649 1.4025 7.89905 1.70566 8.03725 2.03931C8.17545 2.37295 8.24658 2.73055 8.24658 3.09169" fill="#C2E4F8"/>
<path fill-rule="evenodd" clip-rule="evenodd" d="M2.75684 3.0965C2.75684 5.15625 4.54434 6.76569 5.43809 8.5965C6.37859 6.765 8.25684 5.15625 8.25684 3.0965" fill="#C2E4F8"/>
<path d="M5.49585 -0.00138474C3.79085 -0.00138474 2.4021 1.38737 2.4021 3.09237C2.4021 3.18353 2.43832 3.27094 2.50278 3.33541C2.56725 3.39987 2.65468 3.43612 2.74585 3.43612C2.83702 3.43612 2.92445 3.39987 2.98892 3.33541C3.05338 3.27094 3.0896 3.18353 3.0896 3.09237C3.0896 1.75862 4.16279 0.686115 5.49585 0.686115C6.8296 0.686115 7.9021 1.75862 7.9021 3.09237C7.9021 3.18353 7.93832 3.27094 8.00278 3.33541C8.06725 3.39987 8.15468 3.43612 8.24585 3.43612C8.33702 3.43612 8.42445 3.39987 8.48892 3.33541C8.55338 3.27094 8.5896 3.18353 8.5896 3.09237C8.5896 1.38737 7.20085 -0.00138474 5.49585 -0.00138474Z" fill="#249FE6"/>
<path fill-rule="evenodd" clip-rule="evenodd" d="M2.75273 0.748611C2.66168 0.7497 2.57478 0.786913 2.51111 0.852005C2.44743 0.917097 2.41219 1.00475 2.4131 1.0958C2.4131 2.22536 2.89985 3.20647 3.47117 4.11604C4.04179 5.02491 4.70454 5.8781 5.12942 6.74779C5.15735 6.80514 5.20069 6.85357 5.25459 6.88769C5.30849 6.92181 5.37082 6.94027 5.43461 6.94098C5.49839 6.94169 5.56112 6.92462 5.61577 6.89172C5.67042 6.85881 5.71483 6.81129 5.74404 6.75459C6.19092 5.88559 6.88667 5.03171 7.48754 4.12283C8.08773 3.21396 8.6006 2.23228 8.6006 1.0979C8.6006 1.00673 8.56439 0.91924 8.49992 0.854774C8.43546 0.790309 8.34802 0.75415 8.25685 0.75415C8.16569 0.75415 8.07825 0.790309 8.01379 0.854774C7.94932 0.91924 7.9131 1.00673 7.9131 1.0979C7.9131 2.02328 7.48754 2.87577 6.91417 3.74409C6.44117 4.45909 5.90629 5.19879 5.44498 5.96604C5.00704 5.20154 4.50242 4.46391 4.05348 3.75097C3.50829 2.88266 3.1006 2.02802 3.1006 1.09715C3.10116 1.05131 3.09254 1.00583 3.07525 0.963371C3.05796 0.920915 3.03236 0.882405 2.99995 0.849991C2.96753 0.817577 2.92896 0.791914 2.88651 0.774628C2.84405 0.757341 2.79857 0.748729 2.75273 0.749283V0.748611Z" fill="#249FE6"/>
<path d="M6.18408 3.09375C6.18408 3.27609 6.11165 3.45095 5.98272 3.57989C5.85379 3.70882 5.67892 3.78125 5.49658 3.78125C5.31425 3.78125 5.13938 3.70882 5.01045 3.57989C4.88151 3.45095 4.80908 3.27609 4.80908 3.09375C4.80908 2.91141 4.88151 2.73655 5.01045 2.60761C5.13938 2.47868 5.31425 2.40625 5.49658 2.40625C5.67892 2.40625 5.85379 2.47868 5.98272 2.60761C6.11165 2.73655 6.18408 2.91141 6.18408 3.09375Z" fill="white"/>
<path d="M5.49584 2.06179C4.93071 2.06179 4.46459 2.52791 4.46459 3.09304C4.46459 3.65885 4.93071 4.12429 5.49584 4.12429C6.06165 4.12429 6.52709 3.65885 6.52709 3.09304C6.52709 2.52791 6.06165 2.06179 5.49584 2.06179ZM5.49584 2.74929C5.68971 2.74929 5.83959 2.89916 5.83959 3.09304C5.83959 3.28691 5.68971 3.43679 5.49584 3.43679C5.45052 3.43744 5.40553 3.42899 5.36353 3.41195C5.32153 3.3949 5.28338 3.36964 5.25133 3.33759C5.21927 3.30554 5.19398 3.26738 5.17693 3.22538C5.15989 3.18339 5.15144 3.13836 5.15209 3.09304C5.15209 2.89916 5.30196 2.74929 5.49584 2.74929ZM8.30771 6.34288C8.2273 6.34266 8.14935 6.37063 8.08743 6.42194C8.02551 6.47325 7.98354 6.54463 7.96883 6.62369C7.95411 6.70275 7.96758 6.78449 8.00689 6.85465C8.04619 6.9248 8.10885 6.979 8.18396 7.00773C8.8694 7.28479 9.31009 7.64911 9.49984 7.98392C9.69027 8.31873 9.68546 8.60752 9.43727 8.96364C8.93884 9.67589 7.35003 10.307 5.5364 10.3146C3.72209 10.3221 2.11128 9.7075 1.58465 8.99318C1.32134 8.63568 1.30828 8.34487 1.48496 8.01212C1.66234 7.67868 2.08653 7.3116 2.76096 7.02904C2.80312 7.01194 2.84146 6.98663 2.87377 6.9546C2.90608 6.92257 2.93171 6.8844 2.94918 6.8424C2.96665 6.80039 2.9756 6.75537 2.97552 6.70988C2.97545 6.66439 2.96634 6.6194 2.94873 6.57745C2.93113 6.5355 2.90537 6.49741 2.87295 6.4655C2.84054 6.43358 2.80211 6.40843 2.75989 6.39148C2.71768 6.37452 2.67252 6.36609 2.62703 6.36672C2.58154 6.36735 2.53663 6.37697 2.4949 6.39508C1.7249 6.71821 1.16321 7.15275 0.8779 7.68969C0.592588 8.22594 0.642088 8.87424 1.03121 9.40155C1.80946 10.4569 3.58253 11.0103 5.54052 11.0021C7.49784 10.9938 9.2544 10.4266 10.001 9.35892C10.3743 8.82473 10.3998 8.17503 10.0973 7.64428C9.79615 7.11285 9.22209 6.68591 8.44177 6.36966C8.39933 6.35183 8.35374 6.34276 8.30771 6.34288Z" fill="#249FE6"/>
</g>
<defs>
<clipPath id="clip0_355_144">
<rect width="11" height="11" fill="white"/>
</clipPath>
</defs>
</svg>
