<svg width="160" height="160" viewBox="0 0 160 160" fill="none" xmlns="http://www.w3.org/2000/svg">
<path d="M78.8819 159.992C123.06 160.609 159.375 125.296 159.992 81.1182C160.61 36.9398 125.297 0.625567 81.1184 0.00797609C36.9401 -0.609615 0.625805 34.7033 0.00821354 78.8817C-0.609378 123.06 34.7036 159.374 78.8819 159.992Z" fill="#A4FEBB"/>
<path d="M79.4944 116.168C99.4696 116.448 115.889 100.481 116.168 80.5056C116.448 60.5304 100.481 44.1109 80.5056 43.8317C60.5304 43.5524 44.1109 59.5192 43.8317 79.4944C43.5524 99.4696 59.5192 115.889 79.4944 116.168Z" fill="#34A853"/>
<path d="M58.4526 73.4846L73.3303 88.7841L101.903 61.1088L106.824 66.2821L73.1877 98.9912L68.1555 93.8163L68.2664 93.8179L53.2778 78.5167L58.4526 73.4846Z" fill="#FEFEFE" stroke="#1D1819" stroke-width="0.352581"/>
</svg>
