<svg width="21" height="21" viewBox="0 0 21 21" fill="none" xmlns="http://www.w3.org/2000/svg">
<path d="M11.3752 18.3783H6.99838C4.58113 18.3783 2.62156 16.4187 2.62156 14.0015V6.99855C2.62156 4.58129 4.58113 2.62172 6.99838 2.62172L14.0013 2.62172C16.4186 2.62172 18.3781 4.58129 18.3781 6.99855V11.3754" stroke="black" stroke-width="1.5" stroke-linecap="round" stroke-linejoin="round"/>
<path d="M12.7286 8.27132C13.959 9.50209 13.9588 11.4972 12.7281 12.7277C11.4975 13.9582 9.50239 13.9582 8.27175 12.7277C7.04112 11.4972 7.0409 9.50209 8.27127 8.27132C8.86228 7.68011 9.66399 7.34796 10.4999 7.34796C11.3359 7.34796 12.1376 7.68011 12.7286 8.27132" stroke="black" stroke-width="1.5" stroke-linecap="round" stroke-linejoin="round"/>
<path d="M14.8767 17.0598H19.2535" stroke="black" stroke-width="1.5" stroke-linecap="round" stroke-linejoin="round"/>
<path d="M17.0651 19.2482V14.8714" stroke="black" stroke-width="1.5" stroke-linecap="round" stroke-linejoin="round"/>
</svg>
