<svg width="27" height="27" viewBox="0 0 27 27" fill="none" xmlns="http://www.w3.org/2000/svg">
<path d="M8.6625 18.3375C8.86875 18.5437 9.13125 18.6469 9.45 18.6469C9.76875 18.6469 10.0313 18.5437 10.2375 18.3375L13.5 15.075L16.7906 18.3656C16.9969 18.5719 17.2549 18.6701 17.5646 18.6604C17.8736 18.6514 18.1312 18.5437 18.3375 18.3375C18.5437 18.1312 18.6469 17.8688 18.6469 17.55C18.6469 17.2313 18.5437 16.9688 18.3375 16.7625L15.075 13.5L18.3656 10.2094C18.5719 10.0031 18.6701 9.74513 18.6604 9.43538C18.6514 9.12638 18.5437 8.86875 18.3375 8.6625C18.1312 8.45625 17.8688 8.35313 17.55 8.35313C17.2313 8.35313 16.9688 8.45625 16.7625 8.6625L13.5 11.925L10.2094 8.63438C10.0031 8.42813 9.7455 8.3295 9.4365 8.3385C9.12675 8.34825 8.86875 8.45625 8.6625 8.6625C8.45625 8.86875 8.35313 9.13125 8.35313 9.45C8.35313 9.76875 8.45625 10.0313 8.6625 10.2375L11.925 13.5L8.63438 16.7906C8.42813 16.9969 8.32987 17.2545 8.33963 17.5635C8.34863 17.8733 8.45625 18.1312 8.6625 18.3375ZM13.5 24.75C11.9438 24.75 10.4813 24.4545 9.1125 23.8635C7.74375 23.2733 6.55313 22.4719 5.54063 21.4594C4.52813 20.4469 3.72675 19.2563 3.1365 17.8875C2.5455 16.5187 2.25 15.0562 2.25 13.5C2.25 11.9438 2.5455 10.4813 3.1365 9.1125C3.72675 7.74375 4.52813 6.55313 5.54063 5.54063C6.55313 4.52813 7.74375 3.72637 9.1125 3.13537C10.4813 2.54512 11.9438 2.25 13.5 2.25C15.0562 2.25 16.5187 2.54512 17.8875 3.13537C19.2563 3.72637 20.4469 4.52813 21.4594 5.54063C22.4719 6.55313 23.2733 7.74375 23.8635 9.1125C24.4545 10.4813 24.75 11.9438 24.75 13.5C24.75 15.0562 24.4545 16.5187 23.8635 17.8875C23.2733 19.2563 22.4719 20.4469 21.4594 21.4594C20.4469 22.4719 19.2563 23.2733 17.8875 23.8635C16.5187 24.4545 15.0562 24.75 13.5 24.75ZM13.5 22.5C15.9937 22.5 18.1174 21.6236 19.8709 19.8709C21.6236 18.1174 22.5 15.9937 22.5 13.5C22.5 11.0063 21.6236 8.88263 19.8709 7.12912C18.1174 5.37637 15.9937 4.5 13.5 4.5C11.0063 4.5 8.883 5.37637 7.13025 7.12912C5.37675 8.88263 4.5 11.0063 4.5 13.5C4.5 15.9937 5.37675 18.1174 7.13025 19.8709C8.883 21.6236 11.0063 22.5 13.5 22.5Z" fill="white"/>
</svg>
