<svg width="73" height="73" viewBox="0 0 73 73" fill="none" xmlns="http://www.w3.org/2000/svg">
<path d="M36.5 54.75C37.5342 54.75 38.4016 54.3996 39.1025 53.6988C39.8008 53.0004 40.15 52.1342 40.15 51.1C40.15 50.0658 39.8008 49.1983 39.1025 48.4975C38.4016 47.7992 37.5342 47.45 36.5 47.45C35.4658 47.45 34.5996 47.7992 33.9012 48.4975C33.2004 49.1983 32.85 50.0658 32.85 51.1C32.85 52.1342 33.2004 53.0004 33.9012 53.6988C34.5996 54.3996 35.4658 54.75 36.5 54.75ZM36.5 40.15C37.5342 40.15 38.4016 39.7996 39.1025 39.0988C39.8008 38.4004 40.15 37.5342 40.15 36.5V21.9C40.15 20.8658 39.8008 19.9984 39.1025 19.2976C38.4016 18.5992 37.5342 18.25 36.5 18.25C35.4658 18.25 34.5996 18.5992 33.9012 19.2976C33.2004 19.9984 32.85 20.8658 32.85 21.9V36.5C32.85 37.5342 33.2004 38.4004 33.9012 39.0988C34.5996 39.7996 35.4658 40.15 36.5 40.15ZM36.5 73C31.4508 73 26.7058 72.0413 22.265 70.1238C17.8242 68.2088 13.9613 65.6087 10.6763 62.3238C7.39125 59.0388 4.79123 55.1758 2.8762 50.735C0.958734 46.2942 0 41.5492 0 36.5C0 31.4508 0.958734 26.7058 2.8762 22.265C4.79123 17.8242 7.39125 13.9613 10.6763 10.6763C13.9613 7.39125 17.8242 4.79002 22.265 2.87255C26.7058 0.957516 31.4508 0 36.5 0C41.5492 0 46.2942 0.957516 50.735 2.87255C55.1758 4.79002 59.0388 7.39125 62.3238 10.6763C65.6087 13.9613 68.2088 17.8242 70.1238 22.265C72.0413 26.7058 73 31.4508 73 36.5C73 41.5492 72.0413 46.2942 70.1238 50.735C68.2088 55.1758 65.6087 59.0388 62.3238 62.3238C59.0388 65.6087 55.1758 68.2088 50.735 70.1238C46.2942 72.0413 41.5492 73 36.5 73ZM36.5 65.7C44.6517 65.7 51.5562 62.8712 57.2137 57.2137C62.8712 51.5562 65.7 44.6517 65.7 36.5C65.7 28.3483 62.8712 21.4438 57.2137 15.7862C51.5562 10.1287 44.6517 7.3 36.5 7.3C28.3483 7.3 21.4438 10.1287 15.7862 15.7862C10.1287 21.4438 7.3 28.3483 7.3 36.5C7.3 44.6517 10.1287 51.5562 15.7862 57.2137C21.4438 62.8712 28.3483 65.7 36.5 65.7Z" fill="#EB4335"/>
</svg>
